<svg width="183" height="107" viewBox="0 0 183 107" fill="none" xmlns="http://www.w3.org/2000/svg">
<path d="M142.375 0.625C143.429 0.600508 144.484 0.576016 145.57 0.550781C147.094 0.54498 147.094 0.54498 148.648 0.539062C149.578 0.530845 150.508 0.522627 151.466 0.51416C154.746 1.14298 155.896 2.47035 158 5C159.935 8.09647 160 9.13931 160 13C161.104 12.913 161.104 12.913 162.23 12.8242C170.185 12.4565 170.185 12.4565 174 15C184.955 31.4329 182.709 58.3156 179.695 76.9258C178.399 82.6577 176.436 87.5881 173.437 92.625C169.274 94.9734 164.666 94.2896 160 94C159.814 95.3613 159.814 95.3613 159.625 96.75C159.07 99.635 158.572 101.555 157 104C152.427 107.048 147.878 106.329 142.5 106.312C140.912 106.337 140.912 106.337 139.293 106.361C138.278 106.362 137.264 106.363 136.219 106.363C134.826 106.368 134.826 106.368 133.404 106.372C130.57 105.933 129.728 105.237 128 103C122.858 92.4409 121.91 78.4957 123 67C125 65 125 65 127.437 64.6875C130.493 65.0602 131.124 65.632 133 68C133.432 69.9011 133.432 69.9011 133.512 72.0117C133.547 72.769 133.583 73.5264 133.619 74.3066C133.642 75.0923 133.664 75.878 133.687 76.6875C133.739 77.8834 133.739 77.8834 133.791 79.1035C133.873 81.0685 133.938 83.0342 134 85C135.127 78.6833 135.145 72.4872 135.133 66.082C135.134 64.9472 135.135 63.8124 135.136 62.6432C135.136 60.2538 135.135 57.8643 135.13 55.4749C135.125 51.8146 135.13 48.1544 135.137 44.4941C135.136 42.1693 135.135 39.8444 135.133 37.5195C135.135 36.4247 135.137 35.3299 135.139 34.2019C135.136 33.1837 135.133 32.1655 135.129 31.1165C135.129 30.2227 135.128 29.3289 135.127 28.408C135.007 26.1343 134.638 24.1793 134 22C133.961 23.7712 133.961 23.7712 133.922 25.5781C133.866 27.1355 133.808 28.6927 133.75 30.25C133.729 31.416 133.729 31.416 133.707 32.6055C133.544 36.4306 133.433 38.4218 131.086 41.5547C129 43 129 43 126.875 42.875C125 42 125 42 123 40C122.769 37.3691 122.668 34.8816 122.687 32.25C122.691 31.4923 122.694 30.7345 122.698 29.9539C122.998 14.1199 124.747 0.646393 142.375 0.625Z" fill="#070707"/>
<path d="M32.5751 0.93457C33.8931 0.859571 35.3272 0.870166 36.8866 0.901367L38.4882 0.9375H38.5048C40.0708 0.921086 40.0733 0.920999 41.6669 0.904297C45.5526 0.941614 47.4053 0.962839 48.661 1.25879C49.8433 1.53748 50.4795 2.05464 51.911 3.25488C55.3285 7.41608 57.0335 13.3166 57.8964 19.5459C58.7584 25.769 58.7709 32.24 58.8622 37.5078C58.6812 38.7334 58.5972 39.2721 58.411 39.7373C58.2293 40.1913 57.9446 40.5859 57.286 41.4795C56.4879 42.0414 56.1687 42.2556 55.7655 42.3545C55.3373 42.4595 54.8004 42.4402 53.538 42.3789C52.3424 41.9494 51.844 41.7594 51.3837 41.3574C50.9028 40.9375 50.4545 40.2806 49.4813 38.8213C49.2688 37.0799 49.1083 35.3308 48.9862 33.5781L48.8739 31.7852V31.7832L48.6473 27.9277C48.5984 26.9533 48.5493 25.9786 48.4989 24.9746L48.4042 23.0742L47.5526 24.7764C45.5555 28.7706 45.0169 33.8978 44.9667 39.0332C44.9415 41.6081 45.0392 44.2032 45.1444 46.6777C45.2367 48.8474 45.3347 50.9199 45.3622 52.8193L45.37 53.623C45.3727 54.6265 45.3724 55.6301 45.371 56.6338L45.3632 59.6465V59.6484C45.3706 67.1676 45.6428 74.571 46.5028 82.0566L46.5546 82.5H48.4755L48.4989 82.0254C48.5478 81.051 48.5969 80.0761 48.6473 79.0723L48.8739 75.2168V75.2148C48.9432 73.9566 49.0115 72.6983 49.0829 71.4023C49.2915 69.7119 49.3912 68.9449 49.6659 68.2217C49.9307 67.5246 50.3631 66.858 51.286 65.4727C52.6381 65.3321 53.32 65.2656 53.9999 65.2656C54.6892 65.2656 55.3807 65.3339 56.7704 65.4785C57.7071 66.4161 58.1163 66.8376 58.3427 67.2432C58.5606 67.6338 58.6131 68.0182 58.7294 69.0234C58.6942 71.0121 58.6473 72.9967 58.578 74.9814L58.5009 76.9785L58.4999 76.9824L58.41 79.5957C57.9061 87.8771 56.4756 96.9297 52.1796 104.014C48.1534 106.533 43.979 106.117 39.0682 106.062H39.0507C38.062 106.086 37.0731 106.109 36.0546 106.134C33.663 106.129 31.9031 106.113 30.2538 105.755C28.6415 105.405 27.114 104.721 25.2255 103.351C23.0956 100.227 22.7259 97.8299 22.4989 93.9707L22.4696 93.4727L21.9716 93.501L19.4989 93.6406L16.2333 93.75H16.2284C15.1757 93.7958 14.1227 93.8406 13.0389 93.8877C11.2396 93.6515 10.1498 93.2996 9.24304 92.6924C8.32278 92.076 7.54961 91.173 6.42566 89.7324C1.46035 79.3826 1.16486 67.3649 1.17859 55.8584L1.18445 53.5605V53.5596C1.18604 52.4959 1.18043 51.4327 1.17175 50.3701L1.13855 47.1836C1.08475 35.6705 1.69278 23.4257 9.31335 14.4043C11.1575 13.5024 12.674 13.3882 14.5555 13.4033L16.619 13.4375H16.62C18.1232 13.451 18.1248 13.4501 19.6561 13.4639V13.4648L21.9921 13.5L22.4618 13.5068L22.4989 13.0391C22.5808 11.9948 22.6626 10.9505 22.7469 9.875C23.6966 5.08003 25.5009 2.87488 28.0165 1.82422C29.3062 1.28558 30.8192 1.03449 32.5751 0.93457Z" fill="#070707" stroke="black"/>
<path d="M60.373 46.3689C61.0973 46.3618 61.8215 46.3546 62.5676 46.3472C64.952 46.3304 67.3345 46.3497 69.7188 46.3711C71.3811 46.3703 73.0435 46.3678 74.7059 46.3638C78.1862 46.3609 81.6658 46.3756 85.146 46.4031C89.6017 46.4372 94.0563 46.4312 98.512 46.4124C101.944 46.4018 105.375 46.4108 108.807 46.4258C110.449 46.431 112.092 46.4305 113.734 46.4243C116.033 46.4188 118.329 46.4392 120.627 46.4666C122.586 46.4759 122.586 46.4759 124.585 46.4854C128.562 47.0847 130.275 48.0695 133 51C133 54.625 133 54.625 132 58C128.399 60.4005 125.797 60.2893 121.639 60.2747C120.892 60.2798 120.145 60.2849 119.376 60.2902C116.907 60.3041 114.438 60.3031 111.969 60.3008C110.254 60.3047 108.539 60.309 106.824 60.3138C103.23 60.3212 99.6351 60.321 96.0405 60.3157C91.4301 60.3099 86.82 60.3268 82.2096 60.35C78.6683 60.3648 75.1271 60.3656 71.5858 60.3625C69.8857 60.363 68.1856 60.3683 66.4856 60.3783C64.1106 60.3906 61.7363 60.3839 59.3613 60.3723C58.6568 60.38 57.9523 60.3876 57.2265 60.3955C54.3607 60.3645 52.4642 60.3364 50.1024 58.6252C48.5133 56.2826 48 54.8548 48 52C51.7711 47.1463 54.3269 46.3734 60.373 46.3689Z" fill="#010101"/>
<path d="M35.5625 10.9375C36.6968 10.9581 37.8312 10.9787 39 11C38.8585 12.0086 38.717 13.0172 38.5713 14.0564C36.9703 26.3128 36.6911 38.4363 36.7392 50.7864C36.75 54.0615 36.7393 57.3362 36.7265 60.6113C36.7198 72.5532 37.2178 84.1858 39 96C36.69 96 34.38 96 32 96C30.0479 91.7928 29.3782 87.6701 28.8945 83.1016C28.8106 82.3208 28.7267 81.54 28.6403 80.7355C27.7469 71.6002 27.6635 62.4672 27.6843 53.2949C27.6875 50.3707 27.6638 47.4475 27.6386 44.5234C27.6022 33.3968 28.1433 22.8089 31 12C32 11 32 11 35.5625 10.9375Z" fill="#F4F4F4"/>
<path d="M143 11C145.31 11 147.62 11 150 11C155.143 22.3635 154.323 36.628 154.261 48.8809C154.25 51.3661 154.261 53.8507 154.273 56.3359C154.281 64.5356 153.992 72.6335 153.109 80.7891C153.032 81.5131 152.954 82.2372 152.875 82.9832C152.331 87.5119 151.351 91.6632 150 96C147.69 96 145.38 96 143 96C143.144 94.7664 143.289 93.5327 143.438 92.2617C144.914 78.2097 145.223 64.2415 145.25 50.125C145.255 49.2159 145.26 48.3068 145.265 47.3702C145.32 35.1052 144.631 23.1581 143 11Z" fill="#F6F6F6"/>
<path d="M162 23C163.98 23 165.96 23 168 23C171.084 32.8688 171.182 42.398 171.188 52.6875C171.2 53.9733 171.212 55.2592 171.225 56.584C171.256 77.6153 171.256 77.6153 167 84C164.375 84.1875 164.375 84.1875 162 84C162.071 83.2189 162.141 82.4378 162.214 81.6331C162.898 73.5508 163.157 65.5465 163.125 57.4375C163.123 56.2325 163.121 55.0276 163.119 53.7861C163.07 43.5025 162.662 33.261 162 23Z" fill="#F5F5F5"/>
<path d="M14 23C15.65 23 17.3 23 19 23C19 43.13 19 63.26 19 84C17.35 84 15.7 84 14 84C11.2174 74.4087 10.5546 65.5875 10.6639 55.6699C10.6876 53.3707 10.6844 51.0727 10.6778 48.7734C10.7152 29.5696 10.7152 29.5696 14 23Z" fill="#F9F9F9"/>
</svg>
